<svg xmlns="http://www.w3.org/2000/svg" xmlns:xlink="http://www.w3.org/1999/xlink" fill="none" version="1.1" width="18" height="18" viewBox="0 0 18 18"><g><path d="M9,0C4.0376954,0,0,4.0376954,0,9C0,13.962305,4.0376954,18,9,18C13.962305,18,18,13.962305,18,9C18,4.0376954,13.962305,0,9,0ZM16.744923,9C16.744923,10.803516,16.126173,12.464649,15.089063,13.781251L4.21875,2.9126954C5.5371094,1.875586,7.1964846,1.2568359,9,1.2568359C13.269727,1.2550782,16.744923,4.7302737,16.744923,9ZM1.2550782,9C1.2550782,6.9837894,2.0302734,5.1451173,3.2958987,3.7669923L14.233008,14.704103C12.854883,15.969728,11.016212,16.744923,9,16.744923C4.7302737,16.744923,1.2550782,13.269727,1.2550782,9Z" fill="#B7B7B7" fill-opacity="1"/></g></svg>