<svg xmlns="http://www.w3.org/2000/svg" xmlns:xlink="http://www.w3.org/1999/xlink" fill="none" version="1.1" width="40" height="40.000003814697266" viewBox="0 0 40 40.000003814697266"><defs><clipPath id="master_svg0_719_37017"><rect x="0" y="0" width="40" height="40.000003814697266" rx="0"/></clipPath></defs><g clip-path="url(#master_svg0_719_37017)"><g><path d="M25.5016291875,24.8655608125C25.1249461875,25.2681188125,24.4909481875,25.472330812499997,23.6175131875,25.472330812499997L20.9690761875,25.472330812499997L20.9690761875,15.6884766125L23.6292321875,15.6884766125C23.6469021875,15.6884766125,24.8558401875,15.7100367125,25.5185541875,16.3668620125C25.8246041875,16.6693845125,25.9729821875,17.0844543125,25.9729821875,17.6376953125L25.9768881875,23.444986812499998C25.9768881875,23.454401812500002,26.0266241875,24.304064812500002,25.5016291875,24.8655608125ZM28.3271481875,17.6376953125C28.3271481875,16.4582145125,27.9294431875,15.4411566125,27.1761071875,14.6936849125C25.8247491875,13.3541554135,23.8353991875,13.3237122847,23.6188161875,13.3343098959L19.7932951875,13.3343098959C19.1431921875,13.3343098959,18.6162111875,13.8612902125,18.6162111875,14.511393312500001L18.6162111875,26.6494138125C18.616210187500002,27.2995178125,19.1431901875,27.8265018125,19.7932951875,27.8264978125L23.6188161875,27.8264978125C25.1867081875,27.8264978125,26.4087101875,27.3604048125,27.2503261875,26.441080812499997C28.4510021875,25.1274318125,28.3389051875,23.4385738125,28.3271481875,23.3538418125L28.3271481875,17.6376953125ZM16.4758996875,14.5101606125C16.4758996875,13.8600510325,15.9488820875,13.333033370973,15.2987727875,13.333033370973C14.6486620875,13.333033370973,14.1216449875,13.8600510325,14.1216449875,14.5101606125L14.1216449875,18.8630881125L9.021222787500001,18.8630881125L9.021222787500001,14.5101606125C9.0212235875,13.8600578925,8.4942109875,13.333045196538,7.8441078875,13.333045196538C7.1940048975,13.333045196538,6.66699295043952,13.8600574725,6.6669921875,14.5101606125L6.6669921875,26.649688812500003C6.66699295043952,27.2997928125,7.1940048975,27.8268078125,7.8441078875,27.8268078125C8.4942109875,27.8268078125,9.0212235875,27.2997928125,9.021222787500001,26.649688812500003L9.021222787500001,21.2173915125L14.1216449875,21.2173915125L14.1216449875,26.6497628125C14.1216449875,27.299865812500002,14.6486577875,27.8268778125,15.2987603875,27.8268778125C15.9488639875,27.8268778125,16.4758767875,27.299865812500002,16.4758767875,26.6497628125L16.4758996875,14.5101606125Z" fill="#FFFFFF" fill-opacity="1"/></g><g><path d="M37.6673350625,28.435509C37.6673350625,29.085262,37.1388130625,29.612623,36.4902190625,29.612623L3.7276351625,29.612623C3.0778584625,29.612623,2.5505196625,29.085262,2.5505196625,28.435509L2.5505196625,11.1719711C2.5505196625,10.5245359,3.0778584625,9.994855600000001,3.7276351625,9.994855600000001L36.4902190625,9.994855600000001C37.1388130625,9.994855600000001,37.6673350625,10.524560000000001,37.6673350625,11.1719711L37.6673350625,28.437876L37.6673350625,28.435509ZM36.4902190625,7.640625L3.7276351625,7.640625C1.7795119625,7.640625,0.1962890625,9.2238477,0.1962890625,11.1719711L0.1962890625,28.435509C0.1962890625,30.38245,1.7795117625,31.966856,3.7276351625,31.966856L36.4902190625,31.966856C38.4371570625,31.966856,40.0215640625,30.38245,40.0215640625,28.435509L40.0215640625,11.1719711C40.0215680625,9.2250307,38.4371380625,7.640625,36.4902190625,7.640625Z" fill="#FFFFFF" fill-opacity="1"/></g><g><path d="M35.9996738125,15.3331499C35.9996738125,15.8883283,35.5496135125,16.3383894,34.9944353125,16.3383894L33.6713910125,16.3383894L33.6713910125,17.6614203C33.6713910125,18.216602299999998,33.2213268125,18.666667,32.6661448125,18.666667C32.1109626125,18.666667,31.6608987125,18.216602299999998,31.6608987125,17.6614203L31.6608987125,16.3383894L30.3382468125,16.3383894C29.7830686525,16.3383894,29.3330078125,15.8883283,29.3330078125,15.3331499C29.3330078125,14.7779717,29.7830686525,14.3279109,30.3382469125,14.3279109L31.6609073125,14.3279109L31.6609073125,13.0052459C31.6609073125,12.45006391,32.1109712125,12,32.6661534125,12C33.2213354125,12,33.6713991125,12.45006391,33.6713991125,13.0052459L33.6713991125,14.3279109L34.9944353125,14.3279109C35.5496135125,14.3279109,35.9996738125,14.7779717,35.9996738125,15.3331499Z" fill="#FFFFFF" fill-opacity="1"/></g></g></svg>