<svg xmlns="http://www.w3.org/2000/svg" xmlns:xlink="http://www.w3.org/1999/xlink" fill="none" version="1.1" width="40" height="40" viewBox="0 0 40 40"><defs><clipPath id="master_svg0_719_36976"><rect x="0" y="0" width="40" height="40" rx="0"/></clipPath></defs><g clip-path="url(#master_svg0_719_36976)"><g><path d="M36.4902190625,7.640625L3.7276358625,7.640625C1.7795117625,7.640625,0.1962890625,9.2238477,0.1962890625,11.1719711L0.1962890625,28.435509C0.1962890625,30.38245,1.7795117625,31.966856,3.7276358625,31.966856L36.4902190625,31.966856C38.4371570625,31.966856,40.0215640625,30.38245,40.0215640625,28.435509L40.0215640625,11.1719711C40.0215680625,9.2250307,38.4371380625,7.640625,36.4902190625,7.640625ZM37.6673350625,28.435509L37.6673320625,28.437876C37.6660500625,29.086542,37.1380230625,29.612623,36.4902190625,29.612623L3.7276358625,29.612623C3.0778579625,29.612623,2.5505194625,29.085262,2.5505194625,28.435509L2.5505194625,11.1719711C2.5505194625,10.5245359,3.0778579625,9.994855600000001,3.7276358625,9.994855600000001L36.4902190625,9.994855600000001C37.1388130625,9.994855600000001,37.6673350625,10.524560000000001,37.6673350625,11.1719711L37.6673350625,28.435509ZM32.5410420625,22.600695Q33.3330080625,21.064031999999997,33.3330080625,18.875816Q33.3330080625,16.687602,32.5410420625,15.151041Q31.7491740625,13.6143789,30.3905260625,12.807189000000001Q29.0319790625,12,27.3330080625,12Q25.6266100625,12,24.2698210625,12.807189000000001Q22.9131280625,13.6143789,22.1230200625,15.151041Q21.3330080625,16.687602,21.3330080625,18.875816Q21.3330080625,21.056168,22.1230200625,22.59283Q22.9131280625,24.129391,24.2698210625,24.940563Q25.6266100625,25.751633,27.3330080625,25.751633Q28.5431400625,25.751633,29.5805660625,25.342117L30.3080860625,26.277538C30.4990390625,26.523062,30.7926560625,26.666668,31.1036950625,26.666668C31.9376120625,26.666668,32.4107890625,25.711716,31.9056400625,25.048208L31.3052020625,24.259542Q32.0376470625,23.577497,32.5410420625,22.600695ZM29.6465030625,22.187672Q29.9628470625,21.797278,30.1822490625,21.267361Q30.5857090625,20.292789,30.5857090625,18.875816Q30.5857090625,17.4588432,30.1822490625,16.484375Q29.7787890625,15.5098038,29.0475160625,15.0072508Q28.3163430625,14.5045958,27.3330080625,14.5045958Q26.3496740625,14.5045958,25.6184010625,15.0072508Q24.8872280625,15.5098038,24.4837680625,16.484375Q24.0803070625,17.4588432,24.0803070625,18.875816Q24.0803070625,20.292789,24.4837680625,21.267361Q24.8872280625,22.241829,25.6184010625,22.744486000000002Q26.3496740625,23.247038,27.3330080625,23.247038Q27.7036930625,23.247038,28.0385460625,23.175623L27.4740180625,22.398079C27.0256500625,21.780523000000002,27.4668200625,20.915031,28.2299770625,20.915031C28.5252070625,20.915031,28.8030620625,21.054588000000003,28.9793470625,21.29141L29.6465030625,22.187672ZM18.0481640625,13.7344446C18.0481640625,13.0843349,17.5211490625,12.557317300000001,16.8710380625,12.557317300000001C16.2209280625,12.557317300000001,15.6939110625,13.0843349,15.6939110625,13.7344446L15.6939110625,18.087372000000002L10.5934890625,18.087372000000002L10.5934890625,13.7344446C10.5934900625,13.084342,10.0664768625,12.5573292,9.4163732625,12.5573292C8.7662715625,12.5573292,8.2392597625,13.084342,8.2392578625,13.7344446L8.2392578625,25.873974C8.2392597625,26.524078,8.7662715625,27.051092,9.4163732625,27.051092C10.0664768625,27.051092,10.5934900625,26.524078,10.5934890625,25.873974L10.5934890625,20.441676L15.6939110625,20.441676L15.6939110625,25.874046C15.6939110625,26.524151,16.2209240625,27.051163,16.8710250625,27.051163C17.5211300625,27.051163,18.0481410625,26.524151,18.0481410625,25.874046L18.0481640625,13.7344446Z" fill-rule="evenodd" fill="#FFFFFF" fill-opacity="1"/></g></g></svg>