<svg xmlns="http://www.w3.org/2000/svg" xmlns:xlink="http://www.w3.org/1999/xlink" fill="none" version="1.1" width="40" height="40" viewBox="0 0 40 40"><defs><clipPath id="master_svg0_719_36971"><rect x="0" y="0" width="40" height="40" rx="0"/></clipPath></defs><g clip-path="url(#master_svg0_719_36971)"><g transform="matrix(0,1,-1,0,46.6669921875,-30.6689453125)"><path d="M38.66796875,12.5818815375C38.66796798706048,10.0508389375,40.719784250000004,7.999023532867447,43.25082685,7.9990234375L58.25082775,7.9990234375C60.78187175,7.99902257919291,62.83368675,10.050838237499999,62.83368675,12.5818815375L62.83368675,40.9161754375C62.83369075,43.4472164375,60.78187175,45.4990344375,58.25082775,45.4990344375L43.25082685,45.4990344375C40.719784250000004,45.4990344375,38.66796875,43.4472164375,38.66796951293952,40.9161754375L38.66796875,12.5818815375ZM43.25082685,10.4990234375C42.10082695,10.4990234375,41.16796975,11.4318809375,41.16796975,12.5818815375L41.16796975,40.9161754375C41.16796975,42.0661734375,42.10082695,42.9990344375,43.25082685,42.9990344375L58.25082775,42.9990344375C59.40082975,42.9990344375,60.33368675,42.0661734375,60.33368675,40.9161754375L60.33368675,12.5818815375C60.33368675,11.4318809375,59.402255749999995,10.4990234375,58.25082775,10.4990234375L43.25082685,10.4990234375Z" fill="#FFFFFF" fill-opacity="1"/></g><g><path d="M11.3359375,23.9996161625L11.3359375,23.431433662499998L13.4697759,21.0955757625Q13.8454072,20.6852216625,14.0884628,20.3806130625Q14.3315187,20.0760044625,14.4498897,19.8061179625Q14.5682609,19.5362317625,14.5682609,19.2395146625Q14.5682609,18.8986053625,14.4056976,18.6492370625Q14.2431345,18.3998683725,13.9622002,18.2641357225Q13.6812658,18.1284036625,13.3308872,18.1284036625Q12.9584122,18.1284036625,12.6822128,18.2814970025Q12.4060133,18.4345903425,12.25607646,18.7092113625Q12.1061396,18.9838327625,12.1061396,19.3531510625L11.361190081,19.3531510625Q11.361190081,18.7849690625,11.62318501,18.3556763525Q11.88518,17.9263830225,12.3381472,17.6864843325Q12.7911146,17.44658501944,13.3561397,17.44658501944Q13.9243217,17.44658501944,14.3630838,17.6864843325Q14.8018465,17.9263830225,15.051215599999999,18.3335803725Q15.3005843,18.7407770625,15.3005843,19.2395146625Q15.3005843,19.5962064625,15.1727433,19.9355373625Q15.0449023,20.2748677625,14.730824,20.6899564625Q14.4167457,21.1050450625,13.8611903,21.701635862499998L12.4091699,23.2546667625L12.4091699,23.3051710625L15.414220799999999,23.3051710625L15.414220799999999,23.9996161625L11.3359375,23.9996161625ZM18.987453000000002,17.5349690165L18.987453000000002,23.9996161625L18.204624199999998,23.9996161625L18.204624199999998,18.3556763525L18.1667457,18.3556763525L16.588462800000002,19.4036559625L16.588462800000002,18.6082017625L18.204624199999998,17.5349690165L18.987453000000002,17.5349690165ZM21.3990695,24.0501212625Q21.1654835,24.0501212625,20.998186099999998,23.8828229625Q20.830886800000002,23.7155256625,20.830886800000002,23.4819388625Q20.830886800000002,23.2483534625,20.998186099999998,23.0810546625Q21.1654835,22.9137573625,21.3990695,22.9137573625Q21.6326555,22.9137573625,21.7999525,23.0810546625Q21.9672505,23.2483534625,21.9672505,23.4819388625Q21.9672505,23.6366109625,21.8899155,23.7660293625Q21.8125795,23.8954496625,21.6847385,23.9727849625Q21.556898500000003,24.0501212625,21.3990695,24.0501212625ZM21.3990695,20.451635862499998Q21.1654835,20.451635862499998,20.998186099999998,20.2843377625Q20.830886800000002,20.117039662499998,20.830886800000002,19.8834540625Q20.830886800000002,19.6498679625,20.998186099999998,19.4825701625Q21.1654835,19.3152720625,21.3990695,19.3152720625Q21.6326555,19.3152720625,21.7999525,19.4825701625Q21.9672505,19.6498679625,21.9672505,19.8834540625Q21.9672505,20.0381257625,21.8899155,20.1675450625Q21.8125795,20.2969636625,21.6847385,20.3743004625Q21.556898500000003,20.451635862499998,21.3990695,20.451635862499998ZM25.3510895,17.44658501944Q25.7488165,17.4497416816,26.1465435,17.5981003525Q26.5442715,17.7464590025,26.872553500000002,18.0889463425Q27.2008365,18.4314336825,27.3997005,19.0217113625Q27.5985645,19.6119894625,27.5985645,20.5021409625Q27.5985645,21.3638837625,27.4360005,22.0314969625Q27.2734375,22.699110462500002,26.9688295,23.1568121625Q26.6642205,23.614514862500002,26.2301935,23.8512573625Q25.7961655,24.0880002625,25.2500795,24.0880002625Q24.7071495,24.0880002625,24.282591500000002,23.8717756625Q23.858034500000002,23.6555509625,23.588148500000003,23.2688712625Q23.3182605,22.8821921625,23.242503499999998,22.370827662499998L24.0127055,22.370827662499998Q24.1168725,22.8159041625,24.4277935,23.1047286625Q24.738715499999998,23.3935546625,25.2500795,23.3935546625Q25.9981845,23.3935546625,26.4322125,22.740145662499998Q26.8662405,22.0867371625,26.8662405,20.8935551625L26.815734499999998,20.8935551625Q26.6389685,21.1587064625,26.3959125,21.3512570625Q26.1528575,21.5438079625,25.856140500000002,21.6479744625Q25.5594235,21.7521409625,25.2248265,21.7521409625Q24.6692715,21.7521409625,24.2068345,21.4759416625Q23.744398500000003,21.1997423625,23.4681985,20.7152089625Q23.1919975,20.2306756625,23.1919975,19.6056761625Q23.1919975,19.0122417625,23.458727500000002,18.5182390625Q23.725458500000002,18.0242370325,24.2099905,17.7306763525Q24.694522499999998,17.4371156693,25.3510895,17.44658501944ZM25.3510895,18.1410297125Q24.9533615,18.1410297125,24.6361265,18.3383150125Q24.3188925,18.5356004625,24.1342335,18.8686179625Q23.9495735,19.2016357625,23.9495735,19.6056761625Q23.9495735,20.0097169625,24.127920500000002,20.339577662499998Q24.306265500000002,20.6694383625,24.6171875,20.8635678625Q24.928110500000003,21.0576963625,25.3258365,21.0576963625Q25.6257095,21.0576963625,25.8845485,20.9393257625Q26.1433865,20.8209543625,26.337515500000002,20.6141991625Q26.5316445,20.4074437625,26.6421245,20.1438710625Q26.7526045,19.8802974625,26.7526045,19.5930499625Q26.7526045,19.2142619625,26.571101499999997,18.8828227625Q26.389598499999998,18.5513830625,26.0723645,18.3462063625Q25.755129500000002,18.1410297125,25.3510895,18.1410297125Z" fill="#FFFFFF" fill-opacity="1"/></g></g></svg>