<svg xmlns="http://www.w3.org/2000/svg" xmlns:xlink="http://www.w3.org/1999/xlink" fill="none" version="1.1" width="40" height="40.000003814697266" viewBox="0 0 40 40.000003814697266"><defs><clipPath id="master_svg0_719_37013"><rect x="0" y="0" width="40" height="40.000003814697266" rx="0"/></clipPath></defs><g clip-path="url(#master_svg0_719_37013)"><g><path d="M29.74039455,24.0898461875C29.36371235,24.492405187499998,28.73044725,24.6972341875,27.85701375,24.6972341875L25.20851655,24.6972341875L25.20851655,14.9130682875L27.86761235,14.9130682875C27.88528205,14.9130682875,29.09534975,14.9342636875,29.75806425,15.5910887875C30.06411265,15.8936113875,30.21242805,16.3091330875,30.21242805,16.8623742875L30.21595285,22.6702451875C30.21595285,22.679660187499998,30.26539135,23.5283511875,29.74039455,24.0898461875ZM32.56547355,16.8623499875C32.56547355,15.682868987500001,32.16878035,14.6658501875,31.415443449999998,13.9183783875C30.06408455,12.5788488725,28.07477715,12.548215325,27.85819385,12.5588129363L24.03258395,12.5588129363C23.38248193,12.5588129363,22.85546875,13.0858252075,22.85546875,13.7359282875L22.85546875,25.8743241875C22.8554674784342,26.524427187500002,23.38247937,27.0514411875,24.03258395,27.0514371875L27.85819765,27.0514371875C29.42609025,27.0514371875,30.64796205,26.5852951875,31.48957825,25.6659701875C32.69025425,24.3523201875,32.57841495,22.6631471875,32.56665805,22.5784151875L32.56665805,16.8623499875L32.56547355,16.8623499875Z" fill="#FFFFFF" fill-opacity="1"/></g><g><path d="M37.6673350625,28.435509C37.6673350625,29.085262,37.1388130625,29.612623,36.4902190625,29.612623L3.7276351625,29.612623C3.0778584625,29.612623,2.5505196625,29.085262,2.5505196625,28.435509L2.5505196625,11.1719711C2.5505196625,10.5245359,3.0778584625,9.994855600000001,3.7276351625,9.994855600000001L36.4902190625,9.994855600000001C37.1388130625,9.994855600000001,37.6673350625,10.524560000000001,37.6673350625,11.1719711L37.6673350625,28.437876L37.6673350625,28.435509ZM36.4902190625,7.640625L3.7276351625,7.640625C1.7795119625,7.640625,0.1962890625,9.2238477,0.1962890625,11.1719711L0.1962890625,28.435509C0.1962890625,30.38245,1.7795117625,31.966856,3.7276351625,31.966856L36.4902190625,31.966856C38.4371570625,31.966856,40.0215640625,30.38245,40.0215640625,28.435509L40.0215640625,11.1719711C40.0215680625,9.2250307,38.4371380625,7.640625,36.4902190625,7.640625Z" fill="#FFFFFF" fill-opacity="1"/></g><g><path d="M8.1585766875,22.336940787499998C7.3312630675,22.435543987499997,6.7204336225,23.2072071875,7.0289301875,23.9811581875C7.3151841175,24.6993081875,7.7519393875,25.359450187500002,8.3175677875,25.9189651875C8.4156241875,26.0159611875,8.5213672875,26.1032601875,8.6348758875,26.181613187499998C9.6868416875,26.907766187500002,10.944680187500001,27.3079491875,12.2377934875,27.3324611875C12.6051921875,27.3394231875,12.968247887499999,27.3297051875,13.335343887499999,27.3132321875C14.2189645875,27.2735831875,15.0909442875,27.0971471875,15.9168490875,26.7900051875C15.9912261875,26.7623451875,16.0643195875,26.7332441875,16.1373099875,26.7021101875C16.6872751875,26.4675481875,17.1797651875,26.180404187500002,17.5446991875,25.807270187500002C17.859232187499998,25.4856681875,18.0894781875,25.0760251875,18.276805187500003,24.6670421875C18.5010321875,24.177496187499997,18.631866187500002,23.652154187500003,18.661492187500002,23.1158591875C18.666751187499997,23.0206641875,18.6673751875,22.9270491875,18.6660021875,22.8317201875C18.6584421875,22.3069972875,18.606208187500002,21.8228797875,18.4622461875,21.4018010875C18.2852661875,20.884149587499998,17.9320981875,20.4328918875,17.5572961875,20.0343842875C17.4262591875,19.8950590875,17.286367187499998,19.7635116875,17.138408187499998,19.6404919875C16.7348381875,19.3049478875,16.2731532875,19.084370087499998,15.7800473875,18.9046344875C15.0064372875,18.6226544875,14.2031540875,18.4191679875,13.3834962875,18.2979325875C13.3068689875,18.2865986875,13.2298531875,18.2757920875,13.1535119875,18.2626680875C12.4668087875,18.1446146875,11.8033985875,17.930628787499998,11.184398187500001,17.6285910875C10.725023287500001,17.4044413875,10.2173502875,17.0747780875,10.1550213875,16.5674483875C10.1536981875,16.5566777875,10.1525342875,16.5458783875,10.1515309875,16.5350527875C10.1462819875,16.4784154875,10.1448182875,16.4237944875,10.146389987500001,16.3669361875C10.1464597875,16.3644091875,10.1465375875,16.361882887500002,10.1466233875,16.3593577875C10.1668510875,15.763873587500001,10.766986387500001,15.352429387499999,11.3425411875,15.1983260875C11.6145996875,15.1254829875,11.8953218875,15.0832683875,12.1789292875,15.0729782875C12.4252042875,15.0640427875,12.669908487499999,15.0743157875,12.9160828875,15.085690487499999C13.5821647875,15.1164674875,14.1397242875,15.2387790875,14.4495071875,15.5190133875C14.4616875875,15.5300316875,14.4725989875,15.540278387499999,14.4846720875,15.5514139875C14.576136587499999,15.6357769875,14.6609320875,15.7256562875,14.7386607875,15.8202948875C15.2540616875,16.4478144875,15.9308461875,17.1133021875,16.7423021875,17.0823540875C17.6058841875,17.0494179875,18.2986981875,16.282328087499998,17.9619031875,15.4864463875C17.705454187500003,14.880431187500001,17.3135791875,14.328332787499999,16.806509187499998,13.8716857875C16.7675061875,13.8365622875,16.7295891875,13.8018583875,16.690603187500002,13.7667189875C15.8920993875,13.0470303575,14.5883473875,12.7140205915,12.9672822875,12.6780939235C12.768273387499999,12.6736834082,12.5670933875,12.6684394123,12.3680390875,12.66715440863C11.6146440875,12.6622908111,10.8652228875,12.7665747555,10.1453978875,12.9760972275C9.8224324875,13.0701042075,9.5107462875,13.1926594975,9.2215087875,13.3643735675C8.740019287500001,13.6502234375,8.3195728875,14.0219230875,7.9837784875,14.4599641875C7.9042489875,14.5637094875,7.8291313875,14.6748876875,7.7635435875,14.7879638875C6.9667623675,16.1616515875,7.1513753275,17.8531460875,8.1939004875,19.0382818875C8.4351056875,19.3124823875,8.7359974875,19.5398020875,9.0450262875,19.7343959875C9.8688740875,20.253169087499998,10.7795247875,20.635875187499998,11.7386884875,20.8655633875C11.876452887500001,20.8985528875,12.0174131875,20.925335887499998,12.1565465875,20.9519633875C12.7289428875,21.0615090875,13.296463987500001,21.1928882875,13.8577441875,21.3457755875C14.1865238875,21.435330387500002,14.4986724875,21.5653056875,14.7997941875,21.7248115875C15.2159518875,21.9452542875,15.6443547875,22.256282787499998,15.6636762875,22.7268241875C15.6669940875,22.8076221875,15.6669940875,22.8900031875,15.6669940875,22.9723831875C15.6669940875,23.0593401875,15.6583299875,23.1462981875,15.6410016875,23.2332551875C15.4708089875,24.0873331875,14.5903544875,24.6559551875,13.738715687500001,24.8379621875C13.5725111875,24.8734831875,13.403519187499999,24.8977871875,13.2329949875,24.9105451875C12.9388889875,24.9325491875,12.6346358875,24.9299991875,12.341298587499999,24.8994051875C11.7834105875,24.841219187500002,11.248161787499999,24.6504851875,10.7855934875,24.343109187499998C10.6754216875,24.2699001875,10.5813436875,24.1847041875,10.4950520875,24.0844481875C10.3304226875,23.8931791875,10.1837093875,23.6894301875,10.056168787499999,23.475599187500002C9.6509782875,22.796265187499998,8.9440130875,22.2433290875,8.1585766875,22.336940787499998Z" fill="#FFFFFF" fill-opacity="1"/></g></g></svg>