<svg xmlns="http://www.w3.org/2000/svg" xmlns:xlink="http://www.w3.org/1999/xlink" fill="none" version="1.1" width="40" height="40" viewBox="0 0 40 40"><defs><clipPath id="master_svg0_719_36946"><rect x="0" y="0" width="40" height="40" rx="0"/></clipPath></defs><g clip-path="url(#master_svg0_719_36946)"><g><path d="M17.6089511375,17.53515625L17.6089511375,23.99980305L16.8261226375,23.99980305L16.8261226375,18.35586357L16.7882437375,18.35586357L15.2099609375,19.40384325L15.2099609375,18.60838895L16.8261226375,17.53515625L17.6089511375,17.53515625ZM20.0205669375,24.05030825Q19.7869815375,24.05030825,19.6196832375,23.88301035Q19.4523854375,23.71571255,19.4523854375,23.48212625Q19.4523854375,23.24854045,19.6196832375,23.08124255Q19.7869815375,22.91394425,20.0205669375,22.91394425Q20.2541532375,22.91394425,20.4214511375,23.08124255Q20.5887489375,23.24854045,20.5887489375,23.48212625Q20.5887489375,23.636797950000002,20.5114131375,23.76621725Q20.4340772375,23.89563655,20.306236237500002,23.97297235Q20.1783957375,24.05030825,20.0205669375,24.05030825ZM20.0205669375,20.45182295Q19.7869815375,20.45182295,19.6196832375,20.28452495Q19.4523854375,20.11722705,19.4523854375,19.88364125Q19.4523854375,19.65005545,19.6196832375,19.48275735Q19.7869815375,19.31545925,20.0205669375,19.31545925Q20.2541532375,19.31545925,20.4214511375,19.48275735Q20.5887489375,19.65005545,20.5887489375,19.88364125Q20.5887489375,20.038312949999998,20.5114131375,20.16773225Q20.4340772375,20.29715105,20.306236237500002,20.37448765Q20.1783957375,20.45182295,20.0205669375,20.45182295ZM24.1872339375,17.53515625L24.1872339375,23.99980305L23.4044056375,23.99980305L23.4044056375,18.35586357L23.3665266375,18.35586357L21.7882437375,19.40384325L21.7882437375,18.60838895L23.4044056375,17.53515625L24.1872339375,17.53515625Z" fill="#FFFFFF" fill-opacity="1"/></g><g><path d="M4,33.333336L4,8.000000499999999C4,5.790861,5.790861,4,8.000000499999999,4L33.333336,4C35.542477000000005,4,37.333336,5.790861,37.333336,8.000000499999999L37.333336,33.333336C37.333336,35.542477000000005,35.542477000000005,37.333336,33.333336,37.333336L8.000000499999999,37.333336C5.790861,37.333336,4,35.542477000000005,4,33.333336ZM6.666667,33.333336Q6.666667,34.666669999999996,8.000000499999999,34.666669999999996L33.333336,34.666669999999996Q34.666669999999996,34.666669999999996,34.666669999999996,33.333336L34.666669999999996,8.000000499999999Q34.666669999999996,6.666667,33.333336,6.666667L8.000000499999999,6.666667Q6.666667,6.666667,6.666667,8.000000499999999L6.666667,33.333336Z" fill-rule="evenodd" fill="#FFFFFF" fill-opacity="1"/></g></g></svg>