<svg xmlns="http://www.w3.org/2000/svg" xmlns:xlink="http://www.w3.org/1999/xlink" fill="none" version="1.1" width="40" height="40" viewBox="0 0 40 40"><defs><clipPath id="master_svg0_719_36950"><rect x="0" y="0" width="40" height="40" rx="0"/></clipPath></defs><g clip-path="url(#master_svg0_719_36950)"><g><path d="M13.8515625,22.6735625625L13.8515625,22.029622562500002L16.692472,17.5346730575L17.1596437,17.5346730575L17.1596437,18.5321477625L16.843987,18.5321477625L14.697522039999999,21.9286126625L14.697522039999999,21.9791178625L18.5232801,21.9791178625L18.5232801,22.6735625625L13.8515625,22.6735625625ZM16.8944921,23.9993200625L16.8944921,22.4778551625L16.8944921,22.1779813625L16.8944921,17.5346730575L17.6394415,17.5346730575L17.6394415,23.9993200625L16.8944921,23.9993200625ZM20.265704200000002,24.0498251625Q20.0321178,24.0498251625,19.8648205,23.8825273625Q19.6975222,23.7152290625,19.6975222,23.4816431625Q19.6975222,23.2480573625,19.8648205,23.0807590625Q20.0321178,22.9134611625,20.265704200000002,22.9134611625Q20.499290000000002,22.9134611625,20.666587800000002,23.0807590625Q20.8338861,23.2480573625,20.8338861,23.4816431625Q20.8338861,23.636314362500002,20.756549800000002,23.7657337625Q20.679214,23.8951530625,20.5513735,23.9724893625Q20.4235325,24.0498251625,20.265704200000002,24.0498251625ZM20.265704200000002,20.451339762499998Q20.0321178,20.451339762499998,19.8648205,20.2840418625Q19.6975222,20.1167437625,19.6975222,19.8831581625Q19.6975222,19.6495721625,19.8648205,19.4822740625Q20.0321178,19.3149760625,20.265704200000002,19.3149760625Q20.499290000000002,19.3149760625,20.666587800000002,19.4822740625Q20.8338861,19.6495721625,20.8338861,19.8831581625Q20.8338861,20.0378298625,20.756549800000002,20.1672491625Q20.679214,20.2966678625,20.5513735,20.3740043625Q20.4235325,20.451339762499998,20.265704200000002,20.451339762499998ZM24.3439875,24.0877036625Q23.7189865,24.0877036625,23.2312975,23.8730573625Q22.7436085,23.658410562500002,22.4579391,23.2748880625Q22.172269800000002,22.8913650625,22.1470165,22.3831586625L22.9424715,22.3831586625Q22.9677238,22.6956586625,23.1571178,22.921352362500002Q23.346511800000002,23.1470470625,23.6526985,23.2701530625Q23.9588865,23.3932590625,24.331360500000002,23.3932590625Q24.7480265,23.3932590625,25.069995499999997,23.2480573625Q25.391965499999998,23.1028551625,25.5750465,22.844016562500002Q25.758128499999998,22.5851783625,25.758128499999998,22.2442693625Q25.758128499999998,21.8875770625,25.581359499999998,21.6145343625Q25.4045925,21.3414916625,25.0636825,21.1868197625Q24.722773500000002,21.0321478625,24.2303505,21.0321478625L23.7126741,21.0321478625L23.7126741,20.3377036625L24.2303505,20.3377036625Q24.6154505,20.3377036625,24.9074325,20.1988143625Q25.1994155,20.0599257625,25.3651355,19.8074004625Q25.5308555,19.5548751625,25.5308555,19.2139661625Q25.5308555,18.8856830625,25.3856535,18.6426277625Q25.2404505,18.3995723725,24.976878499999998,18.2638397225Q24.7133045,18.1281077225,24.3566135,18.1281077225Q24.0220165,18.1281077225,23.7268782,18.2496351025Q23.431739800000003,18.3711630725,23.2455025,18.6000137625Q23.059265099999998,18.8288650625,23.043481800000002,19.1508347625L22.285905800000002,19.1508347625Q22.304845800000002,18.6426277625,22.5920925,18.2591050825Q22.879341099999998,17.8755823925,23.3449335,17.6609357325Q23.8105278,17.4462890625,24.3692395,17.4462890625Q24.9689865,17.4462890625,25.3982795,17.6877664025Q25.827571499999998,17.9292437425,26.0580015,18.3238143925Q26.2884315,18.7183850625,26.2884315,19.1760873625Q26.2884315,19.7221732625,26.0027615,20.1072745625Q25.7170925,20.4923751625,25.2278245,20.6407337625L25.2278245,20.691238362500002Q25.8401985,20.7922491625,26.184264499999998,21.2104937625Q26.528329499999998,21.6287393625,26.528329499999998,22.2442693625Q26.528329499999998,22.7714156625,26.2426605,23.189660562500002Q25.9569915,23.6079058625,25.4645675,23.847804562500002Q24.9721435,24.0877036625,24.3439875,24.0877036625Z" fill="#FFFFFF" fill-opacity="1"/></g><g><path d="M4,30.6663418125L4,9.3330078125C4,7.1238687125,5.790861,5.3330078125,8.000000499999999,5.3330078125L33.333336,5.3330078125C35.542477000000005,5.3330078125,37.333336,7.1238687125,37.333336,9.3330078125L37.333336,30.6663418125C37.333336,32.8754808125,35.542477000000005,34.6663418125,33.333336,34.6663418125L8.000000499999999,34.6663418125C5.790861,34.6663418125,4,32.8754808125,4,30.6663418125ZM6.666667,30.6663418125Q6.666667,31.9996758125,8.000000499999999,31.9996758125L33.333336,31.9996758125Q34.666669999999996,31.9996758125,34.666669999999996,30.6663418125L34.666669999999996,9.3330078125Q34.666669999999996,7.9996745125,33.333336,7.9996745125L8.000000499999999,7.9996745125Q6.666667,7.9996745125,6.666667,9.3330078125L6.666667,30.6663418125Z" fill-rule="evenodd" fill="#FFFFFF" fill-opacity="1"/></g></g></svg>