<svg xmlns="http://www.w3.org/2000/svg" xmlns:xlink="http://www.w3.org/1999/xlink" fill="none" version="1.1" width="40" height="40" viewBox="0 0 40 40"><defs><clipPath id="master_svg0_719_36963"><rect x="0" y="0" width="40" height="40" rx="0"/></clipPath></defs><g clip-path="url(#master_svg0_719_36963)"><g><g><path d="M7.9169921875,5.8328581C7.91699142456048,3.3018155,9.9688076875,1.250000095367447,12.4998502875,1.25L27.4998511875,1.25C30.0308951875,1.24999914169291,32.0827101875,3.3018148,32.0827101875,5.8328581L32.0827101875,34.167152C32.0827141875,36.698193,30.0308951875,38.750011,27.4998511875,38.750011L12.4998502875,38.750011C9.9688076875,38.750011,7.9169921875,36.698193,7.91699295043952,34.167152L7.9169921875,5.8328581ZM12.4998502875,3.75C11.3498503875,3.75,10.416993187500001,4.6828575,10.416993187500001,5.8328581L10.416993187500001,34.167152C10.416993187500001,35.31715,11.3498503875,36.250011,12.4998502875,36.250011L27.4998511875,36.250011C28.6498531875,36.250011,29.5827101875,35.31715,29.5827101875,34.167152L29.5827101875,5.8328581C29.5827101875,4.6828575,28.6512791875,3.75,27.4998511875,3.75L12.4998502875,3.75Z" fill="#FFFFFF" fill-opacity="1"/></g><g><path d="M13.8387785,18.33525689444Q14.2365057,18.3384135566,14.634233,18.4867722275Q15.0319602,18.6351308775,15.3602436,18.9776182175Q15.6885262,19.3201055575,15.8873897,19.9103832375Q16.0862536,20.5006613375,16.0862536,21.3908128375Q16.0862536,22.2525556375,15.9236903,22.9201688375Q15.761127,23.587782337500002,15.4565182,24.0454840375Q15.1519096,24.503186737500002,14.7178822,24.7399292375Q14.2838545,24.9766721375,13.7377684,24.9766721375Q13.194839,24.9766721375,12.7702811,24.7604475375Q12.34572291,24.5442228375,12.07583651,24.1575431375Q11.80595016,23.7708640375,11.730192542,23.259499537499998L12.5003947,23.259499537499998Q12.60456133,23.7045760375,12.915483,23.9934005375Q13.2264047,24.2822265375,13.7377684,24.2822265375Q14.4858742,24.2822265375,14.9199023,23.628817537499998Q15.3539302,22.9754090375,15.3539302,21.7822270375L15.3034248,21.7822270375Q15.1266575,22.0473783375,14.8836017,22.2399289375Q14.6405463,22.4324798375,14.3438292,22.5366463375Q14.0471117,22.6408128375,13.7125158,22.6408128375Q13.156960399999999,22.6408128375,12.6945233,22.3646135375Q12.23208654,22.0884142375,11.95588702,21.6038808375Q11.6796875,21.1193475375,11.6796875,20.4943480375Q11.6796875,19.9009136375,11.94641733,19.4069109375Q12.2131471,18.9129089075,12.69768,18.6193482275Q13.1822128,18.3257875443,13.8387785,18.33525689444ZM13.8387785,19.0297015875Q13.4410512,19.0297015875,13.123816399999999,19.2269868875Q12.8065815,19.4242723375,12.62192237,19.7572898375Q12.43726325,20.0903076375,12.43726325,20.4943480375Q12.43726325,20.8983888375,12.61560917,21.228249537499998Q12.7939552,21.5581102375,13.104877,21.7522397375Q13.4157987,21.9463682375,13.8135262,21.9463682375Q14.1133997,21.9463682375,14.3722382,21.8279976375Q14.6310763,21.7096262375,14.8252056,21.5028710375Q15.0193343,21.2961156375,15.1298141,21.0325429375Q15.2402935,20.7689693375,15.2402935,20.4817218375Q15.2402935,20.1029338375,15.0587909,19.7714946375Q14.8772888,19.4400549375,14.5600536,19.2348782375Q14.2428191,19.0297015875,13.8387785,19.0297015875ZM17.8791823,24.9387931375Q17.6455965,24.9387931375,17.4782991,24.7714948375Q17.3110003,24.6041975375,17.3110003,24.3706107375Q17.3110003,24.1370253375,17.4782991,23.9697265375Q17.6455965,23.8024292375,17.8791823,23.8024292375Q18.112768199999998,23.8024292375,18.2800665,23.9697265375Q18.4473643,24.1370253375,18.4473643,24.3706107375Q18.4473643,24.5252828375,18.3700285,24.6547012375Q18.2926922,24.7841215375,18.1648517,24.8614568375Q18.0370111,24.9387931375,17.8791823,24.9387931375ZM17.8791823,21.340307737499998Q17.6455965,21.340307737499998,17.4782991,21.1730096375Q17.3110003,21.005711537499998,17.3110003,20.7721259375Q17.3110003,20.5385398375,17.4782991,20.3712420375Q17.6455965,20.2039439375,17.8791823,20.2039439375Q18.112768199999998,20.2039439375,18.2800665,20.3712420375Q18.4473643,20.5385398375,18.4473643,20.7721259375Q18.4473643,20.9267976375,18.3700285,21.0562169375Q18.2926922,21.1856355375,18.1648517,21.2629723375Q18.0370111,21.340307737499998,17.8791823,21.340307737499998ZM22.0458495,18.4236408915L22.0458495,24.8882880375L21.2630205,24.8882880375L21.2630205,19.2443482275L21.2251415,19.2443482275L19.6468592,20.2923278375L19.6468592,19.4968736375L21.2630205,18.4236408915L22.0458495,18.4236408915ZM26.0483765,24.9766721375Q25.650648500000003,24.9703588375,25.252920500000002,24.8251562375Q24.8551935,24.6799545375,24.5269105,24.3343100375Q24.1986275,23.988666537500002,23.9997635,23.396810537500002Q23.8008995,22.8049545375,23.8008995,21.9084897375Q23.8008995,21.0499036375,23.9618855,20.385446537500002Q24.122870499999998,19.7209895375,24.4290575,19.2648655775Q24.7352435,18.8087422275,25.1692715,18.5719995475Q25.6033005,18.33525689444,26.1493855,18.33525689444Q26.692314500000002,18.33525689444,27.1168725,18.5514815775Q27.5414305,18.7677068675,27.8097385,19.1528075975Q28.0780465,19.5379089375,28.1569615,20.0398025375L27.3867595,20.0398025375Q27.2794365,19.604196537500002,26.9700925,19.3169488875Q26.6607495,19.0297015875,26.1493855,19.0297015875Q25.3981225,19.0297015875,24.9672505,19.6831106375Q24.536379500000002,20.3365199375,24.5332245,21.5170755375L24.5837285,21.5170755375Q24.760496500000002,21.2487676375,25.005129500000002,21.0577950375Q25.2497635,20.8668229375,25.5464815,20.7626562375Q25.8431985,20.6584897375,26.1746365,20.6584897375Q26.7301935,20.6584897375,27.1910515,20.9346890375Q27.6519105,21.2108888375,27.9296875,21.6954217375Q28.2074665,22.1799543375,28.2074665,22.8049545375Q28.2074665,23.404701737499998,27.9391595,23.9018607375Q27.6708505,24.3990202375,27.1863175,24.6910019375Q26.701784500000002,24.9829840375,26.0483765,24.9766721375ZM26.0483765,24.2822265375Q26.446102500000002,24.2822265375,26.7633365,24.0833640375Q27.080572500000002,23.8845000375,27.2652315,23.5499038375Q27.449890500000002,23.215307737499998,27.449890500000002,22.8049545375Q27.449890500000002,22.404070337500002,27.271544499999997,22.0742097375Q27.0931985,21.7443483375,26.782276500000002,21.5486409375Q26.4713545,21.3529343375,26.0736275,21.3529343375Q25.773754500000003,21.3529343375,25.5149155,21.4713056375Q25.2560765,21.5896763375,25.0619485,21.7948529375Q24.8678195,22.0000302375,24.7573395,22.2636029375Q24.646860500000003,22.527176337500002,24.646860500000003,22.8175802375Q24.646860500000003,23.2026815375,24.8283615,23.5372777375Q25.0098645,23.8718733375,25.3271005,24.0770506375Q25.6443345,24.2822265375,26.0483765,24.2822265375Z" fill="#FFFFFF" fill-opacity="1"/></g></g></g></svg>