<svg xmlns="http://www.w3.org/2000/svg" xmlns:xlink="http://www.w3.org/1999/xlink" fill="none" version="1.1" width="40" height="40" viewBox="0 0 40 40"><defs><clipPath id="master_svg0_719_36956"><rect x="0" y="0" width="40" height="40" rx="0"/></clipPath></defs><g clip-path="url(#master_svg0_719_36956)"><g transform="matrix(0,1,-1,0,45.333984375,-32)"><path d="M38.6669921875,11.2294807875C38.66699130350776,8.7096881875,41.0443615875,6.666992282443573,43.9769949875,6.6669921875L61.3569911875,6.6669921875C64.28962518750001,6.66699133300779,66.6669961875,8.7096871875,66.6669961875,11.2294807875L66.6669961875,39.4378391875C66.6669981875,41.9576301875,64.28962518750001,44.0003281875,61.3569911875,44.0003281875L43.9769949875,44.0003281875C41.0443615875,44.0003281875,38.6669921875,41.9576301875,38.66699307149224,39.4378391875L38.6669921875,11.2294807875ZM43.9769949875,9.1558806875C42.6445290875,9.1558806875,41.5636591875,10.0845918875,41.5636591875,11.2294807875L41.5636591875,39.4378391875C41.5636591875,40.5827251875,42.6445290875,41.5114401875,43.9769949875,41.5114401875L61.3569911875,41.5114401875C62.6894571875,41.5114401875,63.7703301875,40.5827251875,63.7703301875,39.4378391875L63.7703301875,11.2294807875C63.7703301875,10.0845918875,62.691112187499996,9.1558806875,61.3569911875,9.1558806875L43.9769949875,9.1558806875Z" fill="#FFFFFF" fill-opacity="1"/></g><g><path d="M13.6089513375,17.5349690165L13.6089513375,23.9996161625L12.8261227375,23.9996161625L12.8261227375,18.3556763525L12.7882440375,18.3556763525L11.2099609375,19.4036559625L11.2099609375,18.6082017625L12.8261227375,17.5349690165L13.6089513375,17.5349690165ZM17.6114769375,24.0880002625Q17.2137498375,24.0816869625,16.8160224375,23.9364843625Q16.4182949375,23.7912826625,16.0900120375,23.4456381625Q15.761729237499999,23.099994662500002,15.562865237499999,22.508138662500002Q15.3640022375,21.9162826625,15.3640022375,21.0198178625Q15.3640022375,20.1612317625,15.5249867375,19.496774662500002Q15.685971737500001,18.8323176625,15.992158437499999,18.3761937025Q16.2983455375,17.9200703525,16.732373737499998,17.6833276725Q17.1664009375,17.44658501944,17.7124872375,17.44658501944Q18.2554164375,17.44658501944,18.6799745375,17.6628097025Q19.1045327375,17.8790349925,19.3728408375,18.2641357225Q19.6411485375,18.6492370625,19.7200632375,19.1511306625L18.9498610375,19.1511306625Q18.8425378375,18.715524662500002,18.533194537500002,18.4282770125Q18.2238512375,18.1410297125,17.7124872375,18.1410297125Q16.9612240375,18.1410297125,16.5303530375,18.7944387625Q16.0994815375,19.4478480625,16.0963254375,20.6284036625L16.1468300375,20.6284036625Q16.3235983375,20.3600957625,16.5682315375,20.1691231625Q16.8128657375,19.9781510625,17.1095829375,19.8739843625Q17.4063005375,19.7698178625,17.7377395375,19.7698178625Q18.2932949375,19.7698178625,18.7541537375,20.0460171625Q19.2150125375,20.3222169625,19.4927902375,20.8067498625Q19.7705688375,21.2912824625,19.7705688375,21.9162826625Q19.7705688375,22.516029862499998,19.5022602375,23.0131888625Q19.233951537499998,23.5103483625,18.7494192375,23.8023300625Q18.2648859375,24.0943121625,17.6114769375,24.0880002625ZM17.6114769375,23.3935546625Q18.0092044375,23.3935546625,18.3264389375,23.1946921625Q18.6436739375,22.9958281625,18.8283333375,22.6612319625Q19.012992337500002,22.326635862499998,19.012992337500002,21.9162826625Q19.012992337500002,21.515398462500002,18.8346467375,21.1855378625Q18.6563005375,20.8556764625,18.3453784375,20.6599690625Q18.0344562375,20.4642624625,17.636729737499998,20.4642624625Q17.3368559375,20.4642624625,17.078017737499998,20.5826337625Q16.8191790375,20.7010044625,16.6250500375,20.9061810625Q16.430921537499998,21.1113583625,16.3204417375,21.3749310625Q16.2099614375,21.638504462500002,16.2099614375,21.9289083625Q16.2099614375,22.3140096625,16.3914642375,22.6486058625Q16.5729670375,22.9832014625,16.8902015375,23.1883787625Q17.2074360375,23.3935546625,17.6114769375,23.3935546625ZM21.5634989375,24.0501212625Q21.3299109375,24.0501212625,21.1626138375,23.8828229625Q20.995315537499998,23.7155256625,20.995315537499998,23.4819388625Q20.995315537499998,23.2483534625,21.1626138375,23.0810546625Q21.3299109375,22.9137573625,21.5634989375,22.9137573625Q21.7970839375,22.9137573625,21.9643809375,23.0810546625Q22.1316799375,23.2483534625,22.1316799375,23.4819388625Q22.1316799375,23.6366109625,22.0543439375,23.7660293625Q21.977007937499998,23.8954496625,21.8491669375,23.9727849625Q21.721325937499998,24.0501212625,21.5634989375,24.0501212625ZM21.5634989375,20.451635862499998Q21.3299109375,20.451635862499998,21.1626138375,20.2843377625Q20.995315537499998,20.117039662499998,20.995315537499998,19.8834540625Q20.995315537499998,19.6498679625,21.1626138375,19.4825701625Q21.3299109375,19.3152720625,21.5634989375,19.3152720625Q21.7970839375,19.3152720625,21.9643809375,19.4825701625Q22.1316799375,19.6498679625,22.1316799375,19.8834540625Q22.1316799375,20.0381257625,22.0543439375,20.1675450625Q21.977007937499998,20.2969636625,21.8491669375,20.3743004625Q21.721325937499998,20.451635862499998,21.5634989375,20.451635862499998ZM25.5155179375,17.44658501944Q25.9132449375,17.4497416816,26.3109719375,17.5981003525Q26.7086999375,17.7464590025,27.0369829375,18.0889463425Q27.3652649375,18.4314336825,27.5641289375,19.0217113625Q27.7629929375,19.6119894625,27.7629929375,20.5021409625Q27.7629929375,21.3638837625,27.6004299375,22.0314969625Q27.4378659375,22.699110462500002,27.133257937499998,23.1568121625Q26.8286499375,23.614514862500002,26.3946219375,23.8512573625Q25.960594937499998,24.0880002625,25.414507937499998,24.0880002625Q24.8715779375,24.0880002625,24.4470209375,23.8717756625Q24.022462937500002,23.6555509625,23.752576937500002,23.2688712625Q23.4826889375,22.8821921625,23.406931937499998,22.370827662499998L24.1771349375,22.370827662499998Q24.2813019375,22.8159041625,24.5922219375,23.1047286625Q24.903143937499998,23.3935546625,25.414507937499998,23.3935546625Q26.162613937499998,23.3935546625,26.5966429375,22.740145662499998Q27.0306689375,22.0867371625,27.0306689375,20.8935551625L26.9801649375,20.8935551625Q26.8033969375,21.1587064625,26.5603419375,21.3512570625Q26.3172869375,21.5438079625,26.0205699375,21.6479744625Q25.7238519375,21.7521409625,25.3892559375,21.7521409625Q24.8336999375,21.7521409625,24.3712639375,21.4759416625Q23.908826937500002,21.1997423625,23.6326279375,20.7152089625Q23.3564259375,20.2306756625,23.3564259375,19.6056761625Q23.3564259375,19.0122417625,23.6231569375,18.5182390625Q23.889886937500002,18.0242370325,24.3744189375,17.7306763525Q24.858951937500002,17.4371156693,25.5155179375,17.44658501944ZM25.5155179375,18.1410297125Q25.1177899375,18.1410297125,24.8005549375,18.3383150125Q24.4833209375,18.5356004625,24.2986619375,18.8686179625Q24.1140019375,19.2016357625,24.1140019375,19.6056761625Q24.1140019375,20.0097169625,24.2923489375,20.339577662499998Q24.4706949375,20.6694383625,24.7816159375,20.8635678625Q25.092538937500002,21.0576963625,25.4902649375,21.0576963625Q25.7901379375,21.0576963625,26.0489779375,20.9393257625Q26.3078169375,20.8209543625,26.5019449375,20.6141991625Q26.6960739375,20.4074437625,26.8065539375,20.1438710625Q26.9170329375,19.8802974625,26.9170329375,19.5930499625Q26.9170329375,19.2142619625,26.7355299375,18.8828227625Q26.5540289375,18.5513830625,26.2367949375,18.3462063625Q25.9195589375,18.1410297125,25.5155179375,18.1410297125Z" fill="#FFFFFF" fill-opacity="1"/></g></g></svg>