<svg xmlns="http://www.w3.org/2000/svg" xmlns:xlink="http://www.w3.org/1999/xlink" fill="none" version="1.1" width="23" height="24" viewBox="0 0 23 24"><defs><clipPath id="master_svg0_29_036958"><rect x="0" y="0" width="23" height="24" rx="0"/></clipPath></defs><g clip-path="url(#master_svg0_29_036958)"><g><path d="M13.10568984375,19.594984960937502L4.9947198437499996,19.594984960937502C3.11639984375,19.594984960937502,1.57958984375,17.9912849609375,1.57958984375,16.0313849609375L1.57958984375,8.0132049609375C1.57958984375,6.0532149609375,3.11639984375,4.4495849609375,4.9947198437499996,4.4495849609375L13.10568984375,4.4495849609375C14.98398984375,4.4495849609375,16.520789843750002,6.0532149609375,16.520789843750002,8.0132049609375L16.520789843750002,16.0313849609375C16.520789843750002,17.9912849609375,15.02668984375,19.594984960937502,13.10568984375,19.594984960937502ZM4.9947198437499996,6.2313949609375C4.05555984375,6.2313949609375,3.28715984375,7.0332049609375,3.28715984375,8.0132049609375L3.28715984375,16.0313849609375C3.28715984375,17.011384960937498,4.05555984375,17.813184960937498,4.9947198437499996,17.813184960937498L13.10568984375,17.813184960937498C14.04478984375,17.813184960937498,14.81318984375,17.011384960937498,14.81318984375,16.0313849609375L14.81318984375,8.0132049609375C14.81318984375,7.0332049609375,14.04478984375,6.2313949609375,13.10568984375,6.2313949609375L4.9947198437499996,6.2313949609375Z" fill="#388CEB" fill-opacity="1"/></g><g><path d="M11.82507234375,9.3495590234375L8.40993534375,9.3495590234375C7.94035434375,9.3495590234375,7.55615234375,8.9486490234375,7.55615234375,8.4586530234375C7.55615234375,7.9686560234375,7.94035434375,7.5677490234375,8.40993534375,7.5677490234375L11.82507234375,7.5677490234375C12.29465234375,7.5677490234375,12.67885234375,7.9686560234375,12.67885234375,8.4586530234375C12.67885234375,8.9486490234375,12.337342343749999,9.3495590234375,11.82507234375,9.3495590234375Z" fill="#E78E00" fill-opacity="1"/></g><g><path d="M20.66140828125,17.9022513671875C19.935688281250002,17.9022513671875,18.44156828125,17.4568513671875,15.32525928125,15.9423013671875L14.81298828125,15.7195813671875L14.81298828125,8.3250713671875L15.28256928125,8.102341367187499C20.57602828125,5.5187233671875,21.04560828125,6.0978105671875,21.42980828125,6.5432633671875C21.64325828125,6.8105343671875005,21.942078281249998,7.1668913671875,21.89938828125,12.0223213671875C21.85669828125,16.788651367187498,21.60056828125,17.189551367187498,21.47249828125,17.4122513671875C21.38711828125,17.6350513671875,21.21636828125,17.9022513671875,20.66140828125,17.9022513671875ZM16.52055828125,14.5614013671875C17.84391828125,15.1850413671875,19.29534828125,15.7641213671875,20.06375828125,15.9868513671875C20.23451828125,14.2495913671875,20.27719828125,9.6614313671875,20.10644828125,8.0132513671875C19.33803828125,8.2359813671875,17.84391828125,8.859611367187501,16.52055828125,9.4832513671875L16.52055828125,14.5614013671875Z" fill="#388CEB" fill-opacity="1"/></g></g></svg>