<svg xmlns="http://www.w3.org/2000/svg" xmlns:xlink="http://www.w3.org/1999/xlink" fill="none" version="1.1" width="40" height="40.000003814697266" viewBox="0 0 40 40.000003814697266"><defs><clipPath id="master_svg0_719_37021"><rect x="0" y="0" width="40" height="40.000003814697266" rx="0"/></clipPath></defs><g clip-path="url(#master_svg0_719_37021)"><g><path d="M29.7404078125,24.0898461875C29.3637258125,24.492405187499998,28.7304608125,24.6972341875,27.8570268125,24.6972341875L25.2085308125,24.6972341875L25.2085308125,14.9130684875L27.8676258125,14.9130684875C27.8852958125,14.9130684875,29.0953638125,14.9342636875,29.7580778125,15.591088987500001C30.0641248125,15.8936113875,30.2124408125,16.3091332875,30.2124408125,16.8623742875L30.2159648125,22.6702451875C30.2159648125,22.679660187499998,30.2654038125,23.5283511875,29.7404078125,24.0898461875ZM32.5654868125,16.8623499875C32.5654868125,15.682868987500001,32.1687928125,14.6658501875,31.4154568125,13.9183785875C30.0640988125,12.5788490305,28.0747908125,12.5482154842,27.8582078125,12.5588130952L24.0325968125,12.5588130952C23.3824948125,12.5588130952,22.855481812500003,13.0858253875,22.855481812500003,13.7359283875L22.855481812500003,25.8743241875C22.8554798125,26.524427187500002,23.3824918125,27.0514411875,24.0325968125,27.0514371875L27.8582118125,27.0514371875C29.4261038125,27.0514371875,30.6479758125,26.5852951875,31.4895918125,25.6659701875C32.6902678125,24.3523201875,32.578427812499996,22.6631471875,32.566671812500005,22.5784151875L32.5654868125,16.8623499875L32.5654868125,16.8623499875ZM18.0481653125,13.7347699875C18.0481653125,13.0846604075,17.5211477125,12.557642745973,16.8710384125,12.557642745973C16.2209277125,12.557642745973,15.6939106125,13.0846604075,15.6939106125,13.7347699875L15.6939106125,18.0876974875L10.593488412500001,18.0876974875L10.593488412500001,13.7347699875C10.5934892125,13.0846672675,10.0664766125,12.557654571538,9.4163735125,12.557654571538C8.7662705225,12.557654571538,8.23925857543952,13.0846668475,8.2392578125,13.7347699875L8.2392578125,25.874298187500003C8.23925857543952,26.5244021875,8.7662705225,27.0514171875,9.4163735125,27.0514171875C10.0664766125,27.0514171875,10.5934892125,26.5244021875,10.593488412500001,25.874298187500003L10.593488412500001,20.4420008875L15.6939106125,20.4420008875L15.6939106125,25.8743721875C15.6939106125,26.524475187500002,16.2209234125,27.0514871875,16.8710260125,27.0514871875C17.521129612499998,27.0514871875,18.0481424125,26.524475187500002,18.0481424125,25.8743721875L18.0481653125,13.7347699875Z" fill="#FFFFFF" fill-opacity="1"/></g><g><path d="M37.6673350625,28.435509C37.6673350625,29.085262,37.1388130625,29.612623,36.4902190625,29.612623L3.7276351625,29.612623C3.0778584625,29.612623,2.5505196625,29.085262,2.5505196625,28.435509L2.5505196625,11.1719711C2.5505196625,10.5245359,3.0778584625,9.994855600000001,3.7276351625,9.994855600000001L36.4902190625,9.994855600000001C37.1388130625,9.994855600000001,37.6673350625,10.524560000000001,37.6673350625,11.1719711L37.6673350625,28.437876L37.6673350625,28.435509ZM36.4902190625,7.640625L3.7276351625,7.640625C1.7795119625,7.640625,0.1962890625,9.2238477,0.1962890625,11.1719711L0.1962890625,28.435509C0.1962890625,30.38245,1.7795117625,31.966856,3.7276351625,31.966856L36.4902190625,31.966856C38.4371570625,31.966856,40.0215640625,30.38245,40.0215640625,28.435509L40.0215640625,11.1719711C40.0215680625,9.2250307,38.4371380625,7.640625,36.4902190625,7.640625Z" fill="#FFFFFF" fill-opacity="1"/></g></g></svg>