<svg xmlns="http://www.w3.org/2000/svg" xmlns:xlink="http://www.w3.org/1999/xlink" fill="none" version="1.1" width="40" height="40" viewBox="0 0 40 40"><defs><clipPath id="master_svg0_719_32655"><rect x="0" y="0" width="40" height="40" rx="0"/></clipPath></defs><g clip-path="url(#master_svg0_719_32655)"><g><path d="M5.9001968125,4.7998046875L34.1001983125,4.7998046875C35.5905993125,4.7998046875,36.8001973125,5.9934002875,36.8001973125,7.4693877875000005L36.8001973125,32.5302216875C36.8001973125,34.0062106875,35.5905993125,35.1998046875,34.1001983125,35.1998046875L5.9001968125,35.1998046875C4.4099662125000005,35.1998026875,3.2015243843,34.006040687500004,3.2001953125,32.5326026875L3.2001953125,7.4717650875C3.2001953125,5.9957774875,4.4097961125000005,4.8021819589,5.9001968125,4.8021819589L5.9001968125,4.7998046875ZM5.9001968125,16.5151026875L24.5002113125,16.5151026875C25.8257123125,16.5151056875,26.9002423125,17.5775436875,26.9002193125,18.8881116875L26.9002193125,32.5326026875L34.1001983125,32.5326026875L34.1001983125,7.4717650875L5.9001968125,7.4717650875L5.9001968125,16.5127236875L5.9001968125,16.5151026875ZM14.0002013125,19.184686687499998L5.9001968125,19.184686687499998L5.9001968125,32.5326026875L14.0002013125,32.5326026875L14.0002013125,19.184686687499998ZM24.2002163125,32.5326026875L24.2002163125,19.184686687499998L16.7002033125,19.184686687499998L16.7002033125,32.5326026875L24.2002163125,32.5326026875Z" fill="#FFFFFF" fill-opacity="1"/></g></g></svg>