<svg xmlns="http://www.w3.org/2000/svg" xmlns:xlink="http://www.w3.org/1999/xlink" fill="none" version="1.1" width="40" height="40" viewBox="0 0 40 40"><defs><clipPath id="master_svg0_719_31213"><rect x="0" y="0" width="40" height="40" rx="0"/></clipPath></defs><g clip-path="url(#master_svg0_719_31213)"><g><path d="M10.470703,5.54726562501C9.0070314,5.54726562501,7.7980471,5.54726562501,6.8144531,5.626953125C5.7925782,5.70976563,4.8527346,5.88789064,3.9707031,6.33476561C2.6015625,7.0277344,1.4886719,8.1332033,0.79257816,9.4929688C0.34375,10.369922200000001,0.16367188,11.3035159,0.080078125,12.3187499C0,13.2964845,0,14.4968748,0,15.951172L0,24.04961C0,25.503906,0,26.704298,0.080078125,27.682032C0.16367188,28.697657,0.34375,29.630859,0.79257816,30.507813C1.4890625,31.867579,2.6019533,32.973047,3.9707031,33.665625C4.852344,34.112501,5.7925782,34.290625,6.8144531,34.373438C7.7980471,34.453125,9.0070314,34.453125,10.470703,34.453125L20.437891,34.453125C21.901564,34.453125,23.110548,34.453125,24.094141,34.373438C25.116016,34.290625,26.055861,34.112501,26.937891,33.665625C28.307032,32.972656,29.419922,31.867187,30.116016,30.507813C30.564844,29.630859,30.744923,28.697266,30.828516,27.682032C30.903126,26.775391,30.908594,25.676954,30.908594,24.36211L34.46133,27.891407C34.808594,28.236719,35.150391,28.576172,35.44883,28.825392C35.716015,29.047657,36.27969,29.493361,37.054298,29.554296C37.926952,29.622267,38.781643,29.272266,39.345314,28.612501C39.854298,28.021875,39.926952,27.311329,39.963284,26.966406C39.999611,26.579687,39.999611,26.099609,39.999611,25.611328L39.999611,14.3886719C39.999611,13.9003906,39.999611,13.4199219,39.963284,13.0335937C39.926952,12.6886721,39.854298,11.9781251,39.345314,11.3875003C38.781643,10.7277346,37.926952,10.377734700000001,37.054298,10.445703C36.27969,10.5066409,35.716015,10.952343899999999,35.44883,11.174609700000001C35.150784,11.4238281,34.808987,11.7632813,34.46133,12.108593899999999L30.908594,15.638282C30.908594,14.3234377,30.903126,13.2253909,30.828516,12.3183594C30.744923,11.3027344,30.564844,10.3695312,30.116016,9.4925783C29.419531,8.1328125,28.306641,7.0273438,26.937891,6.3343750199999995C26.05625,5.88750002,25.116016,5.70937501,24.094141,5.626562499C23.110548,5.546875,21.901564,5.546875,20.437891,5.546875L10.470703,5.546875L10.470703,5.54726562501ZM27.272657,16.025782L27.272657,23.975C27.272657,25.522657,27.270704,26.57461,27.203516,27.387892C27.139845,28.180079,27.021875,28.585157,26.876173,28.867579C26.527344,29.547266,25.970703,30.100391,25.287109,30.446486C25.003515,30.590626,24.594141,30.707813,23.798048,30.772266C22.979689,30.838673,21.921875,30.840235,20.363672,30.840235L10.545313,30.840235C8.9871092,30.840235,7.9289064,30.838673,7.1109376,30.772266C6.3144531,30.707422,5.9054689,30.590235,5.6218753,30.446486C4.9382815,30.1,4.3820314,29.547266,4.0328126,28.867579C3.8875,28.585157,3.7691407,28.180079,3.7054689,27.387892C3.6382813,26.57461,3.6363282,25.522657,3.6363282,23.975L3.6363282,16.025782C3.6363282,14.4781256,3.6382813,13.426171799999999,3.7054689,12.6132812C3.7691407,11.821094,3.8871095,11.4160156,4.0328126,11.133594C4.3816409,10.4539065,4.9382815,9.9007812,5.6218753,9.5546875C5.9054689,9.410547000000001,6.3148437,9.293359500000001,7.1109376,9.2285156C7.929297,9.1621094,8.9871092,9.160547000000001,10.545313,9.160547000000001L20.363672,9.160547000000001C21.921875,9.160547000000001,22.980078,9.1621094,23.798048,9.2285156C24.594532,9.293359500000001,25.003515,9.410547000000001,25.287109,9.5546875C25.970703,9.901172200000001,26.526953,10.4539065,26.876173,11.133594C27.021484,11.4160156,27.139845,11.821094,27.203516,12.6132812C27.271093,13.426171799999999,27.272657,14.4781256,27.272657,16.025782ZM36.363674,24.671875L31.661718,20.000391L36.363674,15.3289061L36.363674,24.671875ZM12.361719,14.0878906L12.361719,27.226954L14.35625,27.226954L14.35625,21.497657L19.974609,21.497657L19.974609,19.797656L14.35625,19.797656L14.35625,15.794141L20.56172,15.794141L20.56172,14.0875006L12.361719,14.0875006L12.361719,14.0878906Z" fill="#FFFFFF" fill-opacity="1"/></g></g></svg>