<svg xmlns="http://www.w3.org/2000/svg" xmlns:xlink="http://www.w3.org/1999/xlink" fill="none" version="1.1" width="136" height="136" viewBox="0 0 136 136"><g><g><g><path d="M86.335938,6L50.417969,6C43.035156,6,37,12.0351562,37,19.417969L37,20.609375C37,21.77967,37.151646,22.916101,37.436272,24L18.354903999999998,24C10.9925842,24,5,31.174011,5,39.987801L5,46.871437C5,49.706879,6.9119186,51.995731,9.2804184,51.995731C11.648914300000001,51.995731,13.5608368,49.706879,13.5608368,46.871437L13.5608368,39.987801C13.5608368,36.82782,15.715313,34.248588999999996,18.354903999999998,34.248588999999996L118.6451,34.248588999999996C121.28469,34.248588999999996,123.43917,36.82782,123.43917,39.987801L123.43917,47.383865C123.43917,50.219307,125.35108,52.50816,127.71958,52.50816C130.08808,52.50816,132,50.219307,132,47.383865L132,39.987801C131.98573,31.156933,125.99316,24,118.63082,24L99.298103,24C99.582726,22.916101,99.734375,21.77967,99.734375,20.609375L99.734375,19.417969C99.734375,12.0351562,93.699219,6,86.335938,6ZM86.335938,17.71875C87.234375,17.71875,88.035156,18.5,88.035156,19.417969L88.035156,20.609375C88.035156,21.507812,87.253906,22.308594,86.335938,22.308594L50.417969,22.308594C49.519531,22.308594,48.71875,21.527344,48.71875,20.609375L48.71875,19.417969C48.71875,18.519531,49.5,17.71875,50.417969,17.71875L86.335938,17.71875ZM104.890694,68.22266400000001C102.522194,68.22266400000001,100.610275,65.93381500000001,100.610275,63.09837C100.610275,60.262924,102.536453,57.974075,104.890694,57.974075L127,57.974075C129.76142,57.974075,132,60.21265,132,62.974075L132,120.01221C132,128.82599,126.00742,136,118.6451,136L18.354903999999998,136C10.9925842,136,5,128.82599,5,120.01221L5,62.974075C5,60.21265,7.2385763999999995,57.974075,10.000000499999999,57.974075L31.823952,57.974075C34.192451,57.974075,36.10437,60.262924,36.10437,63.09837C36.10437,65.93381500000001,34.192451,68.22266400000001,31.823952,68.22266400000001L13.5608368,68.22266400000001L13.5608368,120.01221C13.5608368,123.17218,15.715313,125.75141,18.354903999999998,125.75141L118.63082,125.75141C121.27042,125.75141,123.4249,123.17218,123.4249,120.01221L123.4249,68.22266400000001L104.890694,68.22266400000001ZM46,63.134117L46,64.701263C46,66.432846,47.402596,67.835365,49.134117,67.835365L87.919411,67.835365C89.650932,67.835365,91.053535,66.432846,91.053535,64.701263L91.053535,63.134117C91.053535,61.402519,89.650932,60,87.919411,60L49.134117,60C47.402596,60,46,61.402519,46,63.134117ZM45,89.371162C45,91.992004,47.123497,94.115372,49.744389,94.115372C52.365295,94.115372,54.488789,91.992004,54.488789,89.371162L54.488789,84.744431C54.488789,82.123367,52.365295,80,49.744389,80C47.123497,80,45,82.123367,45,84.744431L45,89.371162ZM82.026161,84.744431L82.026161,89.371162C82.026161,91.992004,84.149658,94.115372,86.770561,94.115372C89.391457,94.115372,91.514946,91.992004,91.514946,89.371162L91.514946,84.744431C91.514946,82.123367,89.391457,80,86.770561,80C84.149658,80,82.026161,82.123367,82.026161,84.744431ZM57.240643,94.717316C55.015514,96.100258,54.333836,99.022995,55.712807,101.248268C57.41713,103.990585,62.090889,108.6291,68.801914,108.6291C75.477722,108.6291,80.206299,104.025948,81.949631,101.303001C83.364044,99.097313,82.721573,96.163002,80.515839,94.74868C78.306305,93.334366,75.37587,93.98468,73.961472,96.186569C73.941864,96.217949,71.928223,99.140472,68.801914,99.140472C65.761845,99.140472,63.869434,96.386368,63.747982,96.198364C62.353405,94.008255,59.454178,93.342369,57.240643,94.717316Z" fill-rule="evenodd" fill="#B7B7B7" fill-opacity="1"/></g></g></g></svg>